<svg version="1.0" xmlns="http://www.w3.org/2000/svg" width="927" height="1074" viewBox="0 0 927 1074"><path d="M233.5 136.8.5 272.6v532.5L233.6 939l233.2 134 229.6-134.1L926 804.7l-.2-266-.3-266.1-25.5-15.2C822.7 211.5 467 1 466.7 1c-.1.1-105 61.2-233.2 135.8zm436.2 32.4C776 232.1 862.9 283.8 863 284.2c0 .9-395.8 227-396.9 226.6-.5-.2-91.4-51.2-202-113.3C89 299.1 63.2 284.3 64.8 283.3c1-.7 91.8-53.7 201.7-117.7l200-116.5 5 2.9c2.7 1.6 91.9 54.3 198.2 117.2zM79.2 341.1l35.8 20.1v247.3l175.9 95.8 175.9 95.8 173.1-95.8 173-95.8.1-97.1c0-53.4.3-109.2.7-124.1l.6-26.9 34-19.5c18.7-10.7 34.4-19.6 34.9-19.7.4-.2.8 103.3.8 230l-.1 230.3-208.6 121.8L466.7 1025 254.6 903.2 42.5 781.4l-.3-230.2c-.1-126.6.1-230.2.5-230.2.3 0 16.7 9 36.5 20.1zm233.6 131.3 154 86.6L619 472c83.8-47.9 152.4-87 152.6-87 .2 0 .4 44.7.4 99.4v99.4l-16.2 9c-9 4.9-77.3 42.7-151.8 84-74.5 41.3-136 75.2-136.6 75.4-.6.2-71-37.7-156.3-84.2L156 583.6v-99.4c0-85.2.2-99.3 1.4-98.9.8.3 70.7 39.5 155.4 87.1z" fill="#36C"/></svg>